<svg xmlns="http://www.w3.org/2000/svg" viewBox="0 0 256 256">
	<path d="m 3.9448126,255.02458 c -2.5964035,-1.17823 -4.4061548,-4.51937 -3.8411434,-7.09148 0.36087782,-1.64283 12.3834738,-32.29446 13.5643098,-34.58222 1.439035,-2.78801 2.600212,-3.11088 12.169556,-3.38374 l 8.77795,-0.2503 7.827474,-57.16924 c 6.050501,-44.19084 8.123225,-58.11222 9.130247,-61.32299 4.447102,-14.17905 17.259883,-25.02743 32.37481,-27.41124 4.584859,-0.72308 83.515474,-0.70012 88.193924,0.0257 16.09956,2.49757 29.27203,14.50645 33.01982,30.10299 0.54741,2.27807 4.42253,29.25934 8.61136,59.95838 l 7.61607,55.81643 8.75768,0.2503 c 9.13659,0.26113 10.35459,0.53583 11.73838,2.64748 0.91864,1.4018 13.57985,33.29405 14.02841,35.33606 0.22667,1.03183 0.01,2.24427 -0.68147,3.80632 -0.79935,1.80682 -1.46923,2.49872 -3.16353,3.26758 C 249.95702,255.98285 247.77517,256 128.00674,256 8.2382997,256 6.0564494,255.9828 3.9448126,255.02461 Z M 238.44309,241.12761 c -0.15323,-0.48271 -1.72372,-4.48122 -3.48998,-8.88558 l -3.21138,-8.00791 H 128.00674 24.271744 l -3.211379,8.00791 c -1.766258,4.40436 -3.336748,8.40287 -3.489978,8.88558 -0.264955,0.83468 5.14349,0.87766 110.436353,0.87766 105.29286,0 110.7013,-0.043 110.43635,-0.87766 z m -31.33092,-32.22849 c 0,-2.01704 -15.00572,-110.31447 -15.56266,-112.31694 -1.77423,-6.37913 -7.71383,-13.54595 -13.59113,-16.3993 -6.15862,-2.98993 -4.84708,-2.91921 -51.27879,-2.7647 l -42.481238,0.14136 -3.004007,1.20103 c -8.261776,3.30315 -14.633999,10.13181 -16.735192,17.93393 -0.53612,1.99072 -15.557848,110.4894 -15.557848,112.37098 0,0.86468 3.244347,0.90166 79.105435,0.90166 h 79.10543 z m -81.61201,-18.39668 c -3.82802,-1.24257 -6.27819,-3.55399 -7.43762,-7.01643 -2.1849,-6.5248 2.96889,-13.54455 9.9442,-13.54455 5.73629,0 10.5321,4.90569 10.50022,10.74083 -0.009,1.68563 -1.60221,5.50073 -2.89258,6.92745 -2.07176,2.29069 -7.33312,3.79545 -10.11422,2.8927 z m -4.71089,-31.97152 c -1.22472,-11.50388 -3.29655,-41.44326 -3.29655,-47.63756 v -7.55313 h 10.51402 10.51401 l -8e-5,7.38379 c -4e-5,4.08511 -0.78087,16.77665 -1.7478,28.40881 -0.96125,11.56376 -1.74977,21.30661 -1.75226,21.65077 -0.004,0.47037 -1.73276,0.62574 -6.96471,0.62574 h -6.96019 z M 20.35352,76.4193 C 7.4739633,69.39879 6.3429489,68.44404 6.3464567,64.59517 c 0.00384,-4.22528 3.2501954,-7.12718 7.4658833,-6.67373 3.355876,0.36095 24.333284,11.95896 25.938816,14.34107 2.1759,3.22836 1.034003,8.04485 -2.318195,9.77809 -3.195825,1.6524 -4.557674,1.20417 -17.079441,-5.6213 z m 197.92281,5.41557 c -3.19526,-1.94797 -4.1344,-6.41878 -2.01297,-9.5827 1.60158,-2.38863 22.56216,-13.9703 25.93778,-14.33181 4.21636,-0.45154 7.46203,2.45023 7.46588,6.67481 0.004,3.84887 -1.12751,4.80362 -14.00707,11.82413 -12.76352,6.95725 -14.14758,7.38842 -17.38362,5.41557 z M 71.635557,46.32586 C 70.554127,45.66651 68.22473,42.31784 63.908338,35.21746 56.829563,23.57301 56.227199,22.20151 56.985603,19.45521 c 1.328468,-4.81065 7.529414,-6.82744 11.016068,-3.58286 1.38922,1.29277 13.197283,20.53503 13.981289,22.78372 0.785348,2.25253 -0.177691,5.19358 -2.315019,7.06991 -1.438245,1.26262 -2.197392,1.54717 -4.123525,1.54564 -1.428941,-10e-4 -2.971802,-0.37443 -3.908859,-0.94576 z M 176.34554,45.72598 c -2.07578,-1.82229 -2.97909,-4.51637 -2.30375,-6.8708 0.25322,-0.88278 3.32703,-6.31152 6.83069,-12.06386 5.22498,-8.57842 6.70597,-10.64743 8.23732,-11.50797 2.25477,-1.26707 4.00049,-1.32573 6.3453,-0.2132 2.34226,1.11132 3.64219,3.3415 3.64452,6.25265 0.002,2.10467 -0.62918,3.37832 -6.44697,13.01549 -7.17733,11.88927 -8.15835,12.93521 -12.13247,12.93521 -1.98177,0 -2.72623,-0.27597 -4.17464,-1.54752 z M 125.03832,34.90996 c -0.94421,-0.49624 -2.18336,-1.53772 -2.75367,-2.31441 -0.97572,-1.32882 -1.04501,-2.17078 -1.17405,-14.26698 -0.15093,-14.14834 0.0143,-15.09671 3.01399,-17.29572 1.87853,-1.37713 5.88576,-1.37713 7.76429,0 2.91867,2.13964 3.12564,3.24587 3.12564,16.70549 0,10.6882 -0.11251,12.48523 -0.87539,13.9811 -1.78176,3.49376 -5.82607,4.9116 -9.10081,3.19052 z" />
</svg>