<svg xmlns="http://www.w3.org/2000/svg" viewBox="0 0 256 256">
	<path d="m 72.240521,255.47756 c -0.663897,-0.26749 -1.477315,-0.99127 -1.807589,-1.60839 -0.330274,-0.61712 -2.72473,-9.01045 -5.321006,-18.65184 -2.596282,-9.64138 -4.819357,-17.68973 -4.940164,-17.8852 -0.120812,-0.19547 -8.473914,1.85718 -18.562448,4.56145 -15.889851,4.25934 -18.546331,4.83256 -19.864803,4.28643 -1.687406,-0.69895 -2.998882,-3.21274 -2.498548,-4.78914 0.178005,-0.56085 5.760406,-10.45171 12.405325,-21.97968 l 12.081677,-20.95994 -2.337279,-1.54815 c -6.327896,-4.19143 -8.247976,-11.02563 -6.667347,-23.73134 1.274102,-10.24177 1.166087,-14.01999 -0.495875,-17.34444 -0.751469,-1.50317 -3.865771,-5.4681 -6.920675,-8.81095 -8.974939,-9.8209 -11.051846,-13.56992 -11.051846,-19.94965 0,-6.12612 2.430747,-10.428321 11.361775,-20.109348 8.395774,-9.100818 8.882417,-10.859982 7.10751,-25.69301 -1.538972,-12.86133 0.09568,-18.978201 6.288798,-23.532665 3.153306,-2.318968 6.983399,-3.62093 16.075741,-5.464627 4.548492,-0.922319 9.342929,-2.137106 10.6543,-2.699529 3.595226,-1.541923 5.967161,-4.386454 10.898556,-13.070017 5.282499,-9.3018216 8.297223,-12.8817624 12.646519,-15.0175561 2.676118,-1.31415273 3.775348,-1.5350872 7.294942,-1.46621004 4.642256,0.09084717 7.012746,0.82882392 16.486626,5.13258774 3.44558,1.5652425 7.74788,3.225874 9.56068,3.6902921 4.27872,1.0961566 6.839,0.5577228 15.00102,-3.1547509 C 149.99947,0.96827088 153.05342,0.00818275 157.70964,9.3045267e-5 161.11345,-0.00581911 162.35621,0.25267633 164.66706,1.4472621 c 4.11401,2.1267121 7.94702,6.6983109 12.7492,15.2058879 6.82141,12.084849 7.61575,12.663102 21.43437,15.603521 12.89166,2.743168 17.00033,4.727144 20.18316,9.745945 2.97865,4.696848 3.31341,8.751072 1.86422,22.576973 -1.21942,11.633883 -0.8829,12.947481 5.02518,19.615094 12.12428,13.682987 13.78081,16.428817 13.81652,22.901917 0.033,5.98657 -2.28741,10.23415 -10.63929,19.47537 -3.62421,4.01012 -7.04146,8.23703 -7.59389,9.39314 -1.44474,3.02349 -1.58809,6.65422 -0.58566,14.83267 1.86351,15.20356 0.62912,20.69454 -5.7536,25.59401 -1.36407,1.04708 -2.44763,2.22635 -2.40792,2.62061 0.0397,0.39426 5.46152,9.94831 12.04848,21.23123 10.38643,17.79112 11.95385,20.77643 11.80736,22.48828 -0.11861,1.38608 -0.61723,2.30719 -1.67443,3.09317 l -1.50551,1.11928 -18.66212,-5.00145 c -10.26416,-2.75081 -18.72835,-4.94548 -18.8093,-4.87707 -0.081,0.0684 -2.13733,7.55886 -4.56972,16.64543 -5.42905,20.28111 -5.67812,20.98874 -7.60596,21.61001 -1.95549,0.63016 -3.67267,0.32118 -4.65545,-0.83767 -0.43661,-0.51484 -5.83256,-9.70204 -11.99099,-20.41599 -9.55965,-16.63112 -11.41151,-19.52715 -12.6629,-19.80286 -3.19805,-0.70459 -5.62444,-1.603 -12.5165,-4.6344 -9.79317,-4.30742 -10.8679,-4.6126 -15.13483,-4.29775 -2.95413,0.21798 -5.12874,0.93476 -11.38699,3.75332 -4.25454,1.91614 -9.3517,3.90309 -11.32703,4.41546 -4.331016,1.12339 -3.09942,-0.58681 -17.070251,23.70391 -8.751598,15.21617 -10.394182,17.75146 -11.823879,18.24986 -0.913196,0.31834 -1.685412,0.56304 -1.716034,0.54377 -0.03061,-0.0193 -0.598873,-0.25388 -1.262775,-0.52137 z m 11.153645,-29.2617 7.356014,-12.80632 -4.004225,-3.9664 c -3.176082,-3.14607 -4.895475,-5.55176 -8.313557,-11.63189 -4.859598,-8.64433 -6.679696,-10.97081 -9.847064,-12.58668 -2.057977,-1.0499 -13.474691,-3.78322 -15.802009,-3.78322 -0.789963,0 -3.426701,4.13004 -10.800148,16.91679 -5.365264,9.30424 -9.680402,16.97569 -9.589195,17.04766 0.0912,0.072 6.879163,-1.69018 15.08435,-3.91589 8.205187,-2.2257 15.339783,-4.05406 15.854654,-4.06301 0.514871,-0.009 1.555002,0.54317 2.31141,1.22694 1.136139,1.02703 2.071016,3.86378 5.376403,16.31389 2.434194,9.16865 4.200111,14.87169 4.509234,14.56257 0.279462,-0.27946 3.818318,-6.27096 7.864133,-13.31444 z m 101.372654,-1.40029 c 3.26702,-12.2998 4.20366,-15.13675 5.33592,-16.16173 0.75533,-0.68377 1.79458,-1.23545 2.30946,-1.22596 0.51487,0.01 7.64946,1.85212 15.85465,4.09472 8.20519,2.24261 14.97654,4.02092 15.04744,3.95181 0.12312,-0.11999 -19.01831,-33.49154 -19.46845,-33.94168 -0.35714,-0.35714 -10.10859,1.56739 -13.94341,2.75184 -4.91405,1.5178 -7.19622,3.98406 -12.78008,13.81101 -4.24148,7.46449 -7.70019,11.88356 -11.30917,14.4493 -0.94545,0.67215 -0.54388,1.53296 5.99454,12.84974 7.91754,13.70379 8.57437,14.78547 8.82038,14.52554 0.0969,-0.10234 1.95929,-6.8994 4.13872,-15.10459 z m -83.394,-19.30094 c 1.6593,-0.43501 5.50333,-1.95551 8.54229,-3.37891 15.59687,-7.3053 19.57722,-7.36114 34.80989,-0.48841 9.01156,4.06588 12.30315,4.96885 14.94023,4.09854 2.81445,-0.92886 6.25862,-5.13394 10.76352,-13.1415 7.43166,-13.20995 10.3979,-15.35433 25.68621,-18.56928 4.8645,-1.02294 9.83734,-2.27462 11.05076,-2.7815 5.87325,-2.45344 6.87829,-5.71811 5.49372,-17.84525 -2.00594,-17.56942 -1.12541,-20.17953 11.52943,-34.17618 2.67921,-2.96328 5.38543,-6.39561 6.01384,-7.6274 2.49755,-4.89559 1.11663,-8.60513 -6.12621,-16.456729 -12.42819,-13.472768 -13.40833,-16.380554 -11.41836,-33.874533 0.93747,-8.241356 0.80594,-11.483466 -0.57546,-14.183624 -1.4931,-2.918483 -4.79243,-4.167528 -19.36817,-7.332321 -3.38757,-0.735528 -7.53441,-1.987905 -9.21522,-2.783056 -4.13559,-1.956448 -8.39863,-6.692289 -12.3244,-13.691281 -6.37426,-11.364237 -9.43305,-14.7861984 -13.21696,-14.7861984 -2.58209,0 -6.743,1.3897941 -13.23029,4.4190664 -7.82258,3.6528 -12.28866,4.974077 -16.81296,4.974077 -4.72409,0 -7.96305,-0.960322 -17.00854,-5.042886 C 103.03184,9.2932925 98.6656,8.0803874 96.081236,8.7290204 93.435182,9.3931389 90.256874,13.294212 85.400961,21.838061 78.210405,34.489648 74.838941,37.19079 63.030676,39.760643 48.20167,42.987901 45.599582,43.938559 43.887018,46.754634 c -1.59916,2.629611 -1.778404,5.917488 -0.794251,14.569208 1.250305,10.991465 0.946476,16.073658 -1.236646,20.685769 -0.928479,1.961532 -3.338373,5.431232 -5.355318,7.71045 -9.850413,11.131309 -10.809729,12.349219 -11.634972,14.771179 -1.536205,4.50851 -0.04233,7.54248 8.016821,16.28188 5.400588,5.85643 8.263292,9.68708 9.620707,12.8737 1.425514,3.3465 1.637042,10.52407 0.582386,19.7615 -1.384577,12.12714 -0.379533,15.39181 5.493718,17.84525 1.213417,0.50688 6.186258,1.75518 11.050757,2.77401 15.261958,3.19647 18.317238,5.44755 26.033926,19.18141 4.052683,7.21282 7.215752,11.15727 9.88498,12.32694 2.110059,0.92463 2.217003,0.92424 5.823694,-0.0213 z M 118.21431,175.3356 C 91.980383,171.23313 70.600914,153.20044 62.481509,128.32731 58.308908,115.5449 58.297117,99.541936 62.450567,86.310383 c 1.84804,-5.887279 6.57651,-15.115524 10.285309,-20.073181 4.322692,-5.778253 10.922751,-11.997149 17.089383,-16.102445 23.223161,-15.46028 52.889011,-15.448638 76.139561,0.02989 12.62367,8.403918 22.20196,20.958285 27.06554,35.475091 3.32845,9.934763 4.3,22.714042 2.52058,33.154332 -4.72614,27.72946 -25.99329,49.75486 -53.86489,55.78539 -4.88818,1.05765 -18.69872,1.50256 -23.47173,0.75615 z m 19.88023,-8.88764 c 31.82785,-5.15431 54.50711,-36.71742 49.1978,-68.469408 -4.00564,-23.955467 -20.70417,-42.438135 -44.25688,-48.98546 -5.03741,-1.400329 -6.29617,-1.527104 -15.16287,-1.527104 -8.84195,0 -10.14225,0.130079 -15.19479,1.520037 -36.732331,10.105089 -55.337148,50.125335 -39.058858,84.018315 11.729727,24.42242 37.533238,37.80675 64.475598,33.44362 z m -22.10151,-31.91401 c -0.91169,-0.57345 -8.18447,-7.60745 -16.161736,-15.63113 -9.989265,-10.04738 -14.504118,-14.95992 -14.504118,-15.78171 0,-3.278776 2.894513,-5.687841 5.561917,-4.629112 0.739644,0.293574 7.184938,6.395562 14.322877,13.559972 l 12.97807,13.02619 22.9522,-22.92816 c 21.84476,-21.821878 23.0495,-22.928158 24.96881,-22.928158 1.52045,0 2.29835,0.358188 3.16178,1.45586 2.46543,3.134288 3.00395,2.473579 -24.14015,29.617678 -16.41861,16.41861 -25.67048,25.2846 -26.38368,25.28326 -0.6041,-0.001 -1.84429,-0.47125 -2.75597,-1.04469 z"/>
</svg>