<svg xmlns="http://www.w3.org/2000/svg" viewBox="0 0 256 256">
	<path d="m 83.72977,237.54022 c -3.76052,-10.06263 -7.01164,-18.57778 -7.22472,-18.92255 -0.29927,-0.48424 -4.66394,-0.0912 -19.182973,1.72754 -10.337557,1.29492 -18.835909,2.30401 -18.885225,2.24241 -0.04934,-0.0616 6.546134,-10.30395 14.656573,-22.7608 8.110435,-12.45684 14.746235,-22.73186 14.746235,-22.83337 0,-0.10151 -3.04521,-2.24618 -6.76715,-4.76593 C 47.074398,162.7508 38.639867,154.99437 35.550078,148.75701 l -1.60405,-3.2381 0.597991,-7.59263 c 1.070099,-13.58684 6.630869,-54.92415 13.650816,-101.47656 1.534938,-10.17885 2.790793,-18.62502 2.790793,-18.76926 0,-0.14425 7.986515,-0.26362 17.747812,-0.26528 19.24146,-0.003 24.03713,-0.42178 32.55893,-2.8414 7.85769,-2.23105 18.10255,-7.58199 24.60016,-12.84879 L 128.02065,0 l 4.50736,3.33291 c 8.11529,6.00074 18.51411,10.65495 28.77495,12.87883 3.04419,0.65979 7.94525,0.87727 23.87655,1.05951 11.02535,0.12613 20.04609,0.31419 20.04609,0.41793 0,0.10374 1.36824,9.33578 3.04054,20.51563 7.93306,53.03522 12.66547,88.58825 13.59917,102.16607 0.35739,5.19725 0.34923,5.25093 -1.31237,8.62612 -2.94042,5.97284 -12.20282,14.37922 -26.18032,23.76077 -3.30058,2.21531 -6.00106,4.11613 -6.00106,4.22404 0,0.10791 6.63581,10.38817 14.74624,22.84501 8.11044,12.45685 14.70589,22.69921 14.65657,22.7608 -0.0493,0.0616 -8.53173,-0.94549 -18.84981,-2.23797 -10.31808,-1.29248 -18.88871,-2.2214 -19.04585,-2.06426 -0.15714,0.15715 -3.44433,8.70722 -7.30485,19.00016 L 165.55471,256 151.53783,230.30007 c -13.92042,-25.52308 -14.02731,-25.69887 -15.5325,-25.54584 -0.83359,0.0847 -4.38846,0.15408 -7.89972,0.15408 -3.51126,0 -7.06576,-0.0693 -7.8989,-0.15408 -1.50392,-0.15298 -1.61448,0.0287 -15.3886,25.27883 -7.63059,13.98811 -13.95868,25.51616 -14.06242,25.61789 -0.10374,0.10174 -3.2654,-8.04809 -7.02592,-18.11073 z m 17.0729,-17.23518 c 4.69692,-8.6377 8.97641,-16.43287 9.50999,-17.32262 l 0.97013,-1.61772 -7.03812,-3.70723 c -5.93404,-3.12568 -24.20521,-13.40294 -28.134,-15.82495 -1.02578,-0.63237 -1.23654,-0.62719 -1.63593,0.0402 -0.25216,0.42135 -4.80492,7.43109 -10.11725,15.57721 -5.312333,8.14612 -9.619551,14.86225 -9.571598,14.92474 0.04796,0.0625 6.128058,-0.64494 13.511338,-1.57206 l 13.42415,-1.68567 0.50766,1.31669 c 0.43309,1.12329 7.90666,21.04771 9.16253,24.42715 0.23487,0.63203 0.52699,1.14914 0.64914,1.14914 0.12215,0 4.06503,-7.0672 8.76196,-15.70489 z m 68.65765,2.17059 c 2.6099,-7.02251 4.81838,-12.89991 4.90772,-13.06089 0.0893,-0.16098 6.19417,0.46472 13.56628,1.39043 7.3721,0.92572 13.44306,1.632 13.49101,1.56951 0.048,-0.0625 -4.25926,-6.77862 -9.5716,-14.92474 -5.31233,-8.14612 -9.84814,-15.13169 -10.07958,-15.52349 -0.32944,-0.55769 -2.3961,0.42278 -9.51834,4.51573 -5.00365,2.87545 -13.19393,7.41795 -18.20063,10.09445 l -9.10308,4.86636 0.9583,1.59857 c 0.52706,0.87922 4.81017,8.68216 9.51801,17.33986 4.70784,8.6577 8.72327,15.55254 8.92317,15.32185 0.1999,-0.23068 2.49884,-6.16512 5.10874,-13.18764 z m -32.288,-26.72251 c 3.66387,-1.15408 23.74244,-11.97478 36.89885,-19.88543 21.14564,-12.7144 35.29928,-23.3698 38.66031,-29.10497 l 1.3556,-2.31316 -0.61641,-7.20788 C 212.38552,124.55275 208.22904,93.4422 201.62417,48.57262 199.94954,37.19615 198.46794,27.39624 198.33173,26.79505 198.08631,25.71183 197.93321,25.69969 181.35339,25.44847 166.69275,25.22633 163.99078,25.05756 159.51541,24.08449 149.31392,21.8664 138.97678,17.6287 131.58439,12.63424 l -3.41605,-2.30797 -3.47878,2.30501 c -7.67592,5.086 -17.8453,9.24665 -27.99374,11.45321 -4.47537,0.97307 -7.17735,1.14184 -21.83798,1.36398 -16.579828,0.25122 -16.732929,0.26336 -16.978349,1.34658 -0.136206,0.60119 -1.617804,10.4011 -3.292441,21.77757 -6.604867,44.86958 -10.761349,75.98013 -11.846494,88.66906 l -0.616413,7.20788 1.3556,2.31316 c 4.166432,7.10948 24.808937,21.62986 53.726807,37.79258 13.67229,7.64169 20.66779,11.06664 24.25959,11.87732 4.28337,0.96677 11.46634,0.65602 15.70618,-0.6795 z m -14.58627,-7.52691 C 118.80449,187.20847 99.76601,176.94039 84.43834,167.65188 70.0268,158.91856 57.746497,150.18917 52.869506,145.21136 l -2.457313,-2.50811 0.831711,-8.12228 c 1.567231,-15.30512 4.616443,-37.5785 13.207816,-96.47828 l 0.59598,-4.08583 13.52578,-0.31722 c 15.09309,-0.354 20.14131,-1.08106 30.05541,-4.32868 5.13589,-1.68239 13.37405,-5.40355 17.56149,-7.9325 l 1.91523,-1.15667 1.91523,1.15859 c 3.92558,2.37472 12.30034,6.14854 17.508,7.88943 9.74908,3.25907 14.95389,4.01439 30.11199,4.36983 l 13.52886,0.31722 0.33901,2.29828 c 7.13646,48.38056 11.94704,83.50423 13.45862,98.26583 l 0.83171,8.12228 -2.45731,2.50811 c -8.19535,8.36476 -32.528,23.94216 -61.4969,39.36941 -8.17304,4.35251 -13.1389,5.29249 -19.25877,3.64544 z m 13.15213,-9.65893 c 19.14489,-9.64122 46.32612,-26.26928 57.10188,-34.93196 4.01189,-3.22518 4.21304,-3.48454 4.2112,-5.42987 -0.004,-4.42832 -4.63725,-39.78192 -9.98074,-76.16045 -1.53163,-10.42738 -2.78479,-19.21829 -2.78479,-19.53536 0,-0.40079 -2.18531,-0.57649 -7.17032,-0.57649 -16.3874,0 -29.40824,-2.84899 -43.29957,-9.47404 l -5.78116,-2.75715 -4.9935,2.50585 c -12.90441,6.47574 -27.56575,9.72534 -43.87812,9.72534 H 72.05999 L 71.7829,43.84839 C 62.86366,105.49723 59.887,127.56811 59.375246,135.8465 l -0.272111,4.40186 3.985215,3.23535 c 8.35314,6.78138 28.2371,19.2766 46.63104,29.30326 15.09324,8.22743 14.80744,8.1101 19.15624,7.86441 2.29536,-0.12968 4.02409,-0.65468 6.86255,-2.0841 z M 122.4876,168.29566 c -4.11639,-0.73717 -8.66855,-2.00762 -11.7572,-3.28128 -10.1233,-4.17451 -19.24036,-13.1119 -23.72889,-23.26126 -4.6901,-10.60514 -5.04534,-25.43429 -0.86604,-36.15196 1.83785,-4.71311 32.01784,-62.51861 33.46672,-64.10076 2.03859,-2.2261 4.90812,-3.35993 8.50342,-3.35993 3.59064,0 6.44582,1.1263 8.51746,3.35993 1.44321,1.55607 31.58273,59.30947 33.45198,64.10076 3.15254,8.08061 3.82936,20.73765 1.55229,29.02919 -4.51736,16.44919 -16.10722,28.03805 -32.54107,32.53826 -3.45691,0.94663 -13.71626,1.64324 -16.59867,1.12705 z m 16.42842,-9.53869 c 6.0279,-1.94539 10.39606,-4.64036 15.02628,-9.27059 7.12428,-7.12427 10.34218,-14.52434 10.80385,-24.84509 0.33574,-7.50569 -0.66058,-12.87538 -3.50071,-18.86709 -5.13862,-10.84077 -29.79655,-57.57753 -30.92007,-58.60608 -1.5893,-1.45494 -2.85149,-1.45494 -4.43468,0 -1.12314,1.03216 -25.84798,47.88661 -30.92612,58.60608 -2.83886,5.99258 -3.83513,11.36382 -3.49949,18.86709 0.46166,10.32075 3.67957,17.72082 10.80384,24.84509 7.7919,7.7919 16.16538,11.10497 27.11351,10.7278 4.17542,-0.14384 6.62346,-0.51803 9.53359,-1.45721 z m -23.06789,-22.8498 v -8.17165 h -8.17165 -8.17166 v -12.25748 -12.25748 h 8.17166 8.17165 V 95.0489 86.87725 h 12.25748 12.25748 v 8.17165 8.17166 h 8.17166 8.17165 v 12.25748 12.25748 h -8.17165 -8.17166 v 8.17165 8.17166 h -12.25748 -12.25748 z m 16.34331,-8.17165 v -8.17166 h 8.17165 8.17166 v -4.08582 -4.08583 h -8.17166 -8.17165 v -8.17165 -8.17166 h -4.08583 -4.08582 v 8.17166 8.17165 h -8.17166 -8.17165 v 4.08583 4.08582 h 8.17165 8.17166 v 8.17166 8.17165 h 4.08582 4.08583 z" />
</svg>